<?xml version="1.0" encoding="iso-8859-1"?>
<!-- Generator: Adobe Illustrator 16.0.0, SVG Export Plug-In . SVG Version: 6.00 Build 0)  -->
<!DOCTYPE svg PUBLIC "-//W3C//DTD SVG 1.1//EN" "http://www.w3.org/Graphics/SVG/1.1/DTD/svg11.dtd">
<svg version="1.1" id="Layer_1" xmlns="http://www.w3.org/2000/svg" xmlns:xlink="http://www.w3.org/1999/xlink" x="0px" y="0px"
	 width="547px" height="184px" viewBox="0 0 547 184" style="enable-background:new 0 0 547 184;" xml:space="preserve">
<g>
	<path style="fill:#FFFFFF;" d="M382.569,73.037c-3.179,3.975-6.337,7.967-9.54,11.922c-8.932,11.027-17.914,22.014-27.962,32.066
		c-1.587,1.586-3.451,2.895-5.15,4.373c-3.846,3.348-12.581,0.012-14.922-4.26c-2.445-4.457-2.279-8.922-0.605-13.484
		c2.661-7.252,6.827-13.686,11.058-20.076c5.926-8.951,11.886-17.881,17.791-26.844c0.742-1.127,2.164-2.559,1.01-3.75
		c-1.207-1.244-2.564,0.264-3.768,0.943c-10.729,6.064-20.704,13.314-31.143,19.832c-2.868,1.791-5.855,3.385-9.205,4.123
		c-3.265,0.717-4.455-0.258-3.952-3.555c2.282-14.945,10.356-25.885,23.978-32.107c9.119-4.168,18.73-7.309,28.314-10.369
		c1.136-0.363,2.339-0.562,3.527-0.703c4.273-0.51,7.016,1.189,8.5,5.297c2.237,6.191,0.551,11.83-2.586,17.217
		c-6.879,11.807-14.971,22.857-21.748,34.73c-1.936,3.389-3.893,6.773-5.353,10.408c-0.577,1.436-1.629,3.146,0.021,4.303
		c1.506,1.057,3.15,0.209,4.556-0.842c4.784-3.574,8.766-7.982,12.812-12.32c12.469-13.373,23.04-28.271,34.259-42.648
		c3.371-4.32,6.584-8.77,10.445-12.688c3.288-3.338,5.873-3.012,8.224,1.039c1.961,3.381,1.704,6.645-0.099,10.045
		c-6.223,11.746-12.405,23.514-18.484,35.334c-2.92,5.678-5.644,11.469-6.79,17.832c-0.172,0.953-0.271,1.949-0.199,2.908
		c0.264,3.539,3.17,5.48,6.541,4.367c3.221-1.064,5.704-3.289,8.205-5.451c4.214-3.643,7.986-7.729,11.763-11.811
		c1.504-1.625,1.643-1.535,2.36,0.494c0.591,1.668,0.277,3.109-0.726,4.455c-6.856,9.191-15.066,16.9-25.02,22.666
		c-2.22,1.285-4.596,2.242-7.236,2.273c-4.873,0.057-8.492-2.826-9.508-7.588c-1.406-6.598,0.597-12.643,3.068-18.598
		c2.591-6.242,5.223-12.469,7.832-18.705c0.078-0.188,0.099-0.398,0.146-0.598C382.846,73.191,382.708,73.113,382.569,73.037"/>
	<path style="fill:#FFFFFF;" d="M117.969,146.682c-2.933-3.262-3.757-7.104-2.946-11.314c0.922-4.783,3.104-9.08,5.528-13.238
		c6.66-11.424,14.233-22.256,21.625-33.207c1.259-1.863,2.462-3.768,3.631-5.691c0.426-0.699,0.837-1.57,0.143-2.297
		c-0.795-0.83-1.716-0.314-2.477,0.137c-7.62,4.51-15.109,9.223-22.475,14.143c-5.166,3.449-10.119,7.301-16.002,9.572
		c-2.157,0.832-4.555,2.32-6.57,0.584c-1.793-1.547-0.626-4.055-0.164-5.994c3.315-13.902,11.42-24.156,24.595-29.684
		c9.04-3.791,18.329-7.068,27.712-10.012c8.815-2.764,11.945,2.809,12.502,9.166c0.412,4.701-1.252,8.852-3.529,12.826
		c-5.23,9.125-11.396,17.658-16.886,26.619c-3.413,5.57-6.761,11.176-9.63,17.053c-0.427,0.873-0.784,1.791-1.08,2.719
		c-0.33,1.037-0.428,2.143,0.485,2.938c0.98,0.855,2.137,0.631,3.177,0.094c2.088-1.078,3.82-2.646,5.5-4.258
		c11.523-11.051,21.43-23.484,31.14-36.111c7.043-9.16,13.787-18.559,21.421-27.26c4.078-4.648,7.729-4.02,9.894,1.801
		c0.853,2.293,0.869,4.477-0.19,6.756c-4.374,9.402-9.538,18.395-14.303,27.594c-3.728,7.195-7.78,14.234-10.33,21.986
		c-0.659,2.006-1.188,4.029-1.506,6.115c-0.352,2.301,0.005,4.404,1.982,5.854c1.939,1.422,4.022,0.99,5.959-0.039
		c4.503-2.391,8.047-5.982,11.678-9.469c2.857-2.744,5.821-5.379,8.692-8.02c0.793,1.527,1.432,3.449-0.038,5.473
		c-5.971,8.219-13.189,15.131-21.682,20.711c-2.165,1.145-4.328,2.279-6.685,3.016c-3.309,1.035-6.539,0.459-9.777-0.301
		c-4.596-3.109-4.423-7.873-4.077-12.514c0.488-6.541,3.632-12.281,6.029-18.236c0.948-2.354,1.889-4.709,2.834-7.064
		c0.383-1.145-0.254-2.566,0.852-3.314c-0.308,0.982-1.654,0.912-2.344,1.695c-7.86,9.725-15.655,19.504-23.963,28.855
		c-3.827,4.309-7.659,8.607-12.068,12.342c-0.521,0.365-1.153,0.537-1.642,0.957c-4.506,3.871-9.009,2.861-13.489-0.037
		C118.992,147.299,118.427,147.078,117.969,146.682"/>
	<path style="fill:#FFFFFF;" d="M89.361,130.387c0.526-0.607,0.966-1.697,1.794-1.467c0.933,0.26,0.53,1.418,0.593,2.195
		c0.229,2.809-1.002,5.129-2.637,7.24c-11.203,14.479-23.626,27.648-40.037,36.367c-6.645,3.531-13.674,5.994-21.37,5.223
		c-12.218-1.225-20.052-10.283-20.312-23.203c-0.226-11.176,3.542-21.23,8.71-30.859c9.683-18.039,23.452-32.566,39.311-45.236
		c5.348-4.273,10.994-8.17,17.646-10.178c4.334-1.307,8.788-1.822,12.734,1.102c4.8,3.555,5.664,8.691,4.795,14.146
		c-1.178,7.395-4.514,13.986-8.426,20.264c-6.276,10.068-13.693,19.164-23.202,26.41c-2.102,1.602-4.353,2.947-6.789,3.973
		c-2.616,1.102-5.238,1.166-7.369-0.865c-2.196-2.09-2.23-4.803-1.315-7.545c0.6-1.799,1.551-3.451,2.769-4.873
		c4.392-5.135,8.822-10.236,13.325-15.271c1.826-2.045,2.676-1.803,3.837,0.939c1.948-1.496,3.257-3.477,4.669-5.338
		c4.181-5.514,8.152-11.162,10.586-17.721c0.183-0.494,0.385-0.984,0.524-1.488c0.463-1.682,1.052-3.479-0.399-4.893
		c-1.519-1.479-3.124-0.264-4.603,0.309c-7.926,3.064-13.973,8.674-19.575,14.793c-8.499,9.283-16.006,19.338-21.855,30.49
		c-4.612,8.793-7.682,18.123-6.99,28.289c0.096,1.412,0.364,2.848,0.793,4.197c2.538,7.977,9.194,10.822,18.155,7.822
		c6.942-2.322,12.897-6.377,18.684-10.707c6.867-5.137,13.022-11.088,19.255-16.949C85.145,135.398,87.636,133.25,89.361,130.387"/>
	<path style="fill:#FFFFFF;" d="M473.845,86.188c-0.732,0.836-1.465,1.672-2.127,2.43c0.236,0.795,0.745,0.65,1.164,0.609
		c13.208-1.297,26.17-3.68,38.405-9.061c4.97-2.186,9.727-4.764,13.327-9.008c1.812-2.137,1.639-3.285-0.788-4.6
		c-3.303-1.789-6.979-2.328-10.613-2.811c-9.847-1.313-19.761-1.664-29.682-1.885c-3.621-0.082-7.221-0.434-10.292-2.654
		c-2.151-1.557-3.18-3.818-3.377-6.371c-0.373-4.824,0.112-9.605,1.052-14.346c0.635-3.199,2.622-5.535,4.965-7.572
		c11.279-9.811,24.619-15.336,39.012-18.682c7.604-1.769,15.29-2.231,23.057-1.776c3.208,0.188,3.899,0.831,4.401,3.937
		c0.987,6.112-0.662,10.965-6.406,14.019c-4.722,2.511-9.188,5.403-13.024,9.187c-0.364,0.359-0.847,0.621-1.313,0.852
		c-0.928,0.459-2.003,0.656-2.758-0.094c-0.841-0.836-0.243-1.809,0.262-2.666c1.732-2.939,4.094-5.359,6.564-7.854
		c-0.807-0.647-1.639-0.269-2.35-0.132c-11.582,2.22-22.723,5.652-32.706,12.168c-2.773,1.811-5.385,3.842-7.392,6.523
		c-1.779,2.379-1.351,3.855,1.495,4.592c6.054,1.57,12.291,2.002,18.472,2.789c6.917,0.883,13.958,0.816,20.739,2.746
		c2.924,0.832,5.651,2.084,8.077,3.893c4.713,3.512,5.835,8.371,4.786,13.857c-1.435,7.5-6.414,12.406-12.522,16.303
		c-11.936,7.611-25.311,11.25-39.068,13.674c-6.131,1.082-12.292,2.17-18.578,1.49c-1.502-0.162-2.963-0.449-4.354-1.074
		c-3.221-1.451-4.117-3.494-3.155-6.914c1.877-6.676,5.688-11.492,12.62-13.379C474.418,83.92,474.563,84.047,473.845,86.188"/>
	<path style="fill:#FFFFFF;" d="M454.277,48.973c0.127,2.094-1.015,2.484-2.425,2.555c-6.358,0.314-12.447,1.893-18.39,4.049
		c-2.462,0.895-4.81,2.096-7.23,3.105c-1.161,0.486-2.586,1.283-3.522,0.059c-0.841-1.1-0.053-2.438,0.593-3.566
		c1.082-1.895,2.76-3.127,4.636-4.123c6.43-3.412,13.099-6.324,19.767-9.221c3.794-1.648,4.994-0.908,5.797,3.051
		C453.8,46.35,454.062,47.828,454.277,48.973"/>
	<path style="fill:#FFFFFF;" d="M282.453,88.965c12.428-4.736,20.635-12.859,21.681-26.84c0.488-6.52-1.911-11.377-7.549-14.369
		c-4.004-2.125-8.414-2.727-12.854-2.988c-7.847-0.459-15.613,0.453-23.316,1.822c-14.483,2.574-28.545,6.512-41.576,13.545
		c-3.438,1.855-6.927,3.826-8.894,7.383c-2.123,3.838-3.32,8.061-3.958,12.391c-0.65,4.412,1.141,6.1,5.562,5.137
		c5.348-1.166,10.64-2.59,15.955-3.908c1.602-0.395,3.209-0.779,4.798-1.223c0.752-0.209,1.524-0.652,1.398-1.523
		c-0.123-0.852-0.974-1.088-1.756-1.102c-0.899-0.016-1.799,0.096-2.699,0.104c-1.675,0.018-3.356,0.426-5.066,0.051
		c0.197-0.703,0.766-0.828,1.202-1.063c6.843-3.699,14.242-5.957,21.607-8.303c0.402-0.129,0.926-0.449,1.258-0.029
		c0.476,0.604-0.115,1.145-0.361,1.631c-3.849,7.643-7.835,15.217-11.548,22.924c-1.357,2.816-3.107,4.539-6.276,4.92
		c-1.298,0.156-2.583,0.809-3.77,1.434c-4.796,2.523-8.39,6.021-9.288,11.686c-0.299,1.887,0.548,2.938,2.084,3.803
		c1.261,0.709,3.551,0.164,3.757,1.801c0.172,1.371-0.994,2.912-1.578,4.375c-0.139,0.348-0.327,0.676-0.474,1.021
		c-1.817,4.275-3.631,8.553-5.446,12.83c-0.187,2.006-1.656,3.666-1.488,5.787c0.143,1.797,0.59,2.215,2.221,1.598
		c1.407-0.531,2.784-0.93,4.329-0.734c0.756,0.094,1.555-0.188,2.208-0.686l0.022-0.049c1.569-1.818,1.801-4.025,1.833-6.291
		c2.498-4.861,5.062-9.691,7.457-14.604c0.746-1.531,1.636-1.859,3.186-1.502c12.712,2.916,25.437,5.773,38.152,8.682
		c5.403,1.234,10.788,2.545,16.182,3.822c1.798,0.541,3.704,0.627,5.523,0.869c1.382,0.188,3.551,0.357,4.41-1.725
		c1.235-4.986-1.65-12.277-5.735-14.313c-2.628-1.311-5.41-2.234-8.267-2.912c-12.865-3.053-25.959-4.887-38.946-7.289
		c-2.209-0.408-4.413-0.842-6.62-1.264c0.917-0.832,1.811-1.191,2.723-1.498C255.837,97.885,269.327,93.965,282.453,88.965z
		 M250.526,82.088c1.401-2.988,2.778-5.988,4.171-8.98c0.898-1.928,1.509-3.924,1.385-6.082c-0.054-0.922,0.14-1.615,1.205-1.797
		c10.183-1.742,20.09-5.092,30.543-5.254c1.349-0.021,2.716-0.02,4.046,0.172c3.358,0.486,4.303,2.469,2.642,5.426
		c-1.196,2.127-2.945,3.77-4.808,5.305c-5.903,4.873-12.503,8.461-19.663,11.172c-6.795,2.57-13.452,5.508-20.177,8.266
		c-1.078,0.441-2.196,0.785-3.897,1.389C247.671,88.119,249.109,85.107,250.526,82.088z"/>
</g>
</svg>
